<svg width="983" height="418" viewBox="0 0 983 418" fill="none" xmlns="http://www.w3.org/2000/svg">
<path d="M13.1172 32.5469H43.4844L58.2188 91.9336C59.776 98.5221 61.0039 104.811 61.9023 110.801C62.8008 116.73 63.6693 122.331 64.5078 127.602H65.2266C66.0651 122.331 66.9336 116.73 67.832 110.801C68.7305 104.811 69.9583 98.5221 71.5156 91.9336L86.6992 32.5469H116.438V186H94.6953V135.238C94.6953 127.452 94.7552 119.965 94.875 112.777C95.0547 105.59 95.2643 99.0013 95.5039 93.0117C95.7435 86.9622 96.013 81.6315 96.3125 77.0195C96.612 72.4076 96.8815 68.7539 97.1211 66.0586H95.4141L72.2344 166.234H57.5L34.1406 66.0586H32.4336C32.6732 68.7539 32.9427 72.4076 33.2422 77.0195C33.5417 81.6315 33.8112 86.9622 34.0508 93.0117C34.2904 99.0013 34.4701 105.59 34.5898 112.777C34.7695 119.965 34.8594 127.452 34.8594 135.238V186H13.1172V32.5469ZM142.672 32.5469H199.543V50.875H165.941V96.7852H191.906V115.113H165.941V167.672H200.441V186H142.672V32.5469ZM217.242 32.5469H240.512V167.672H272.227V186H217.242V32.5469ZM320.922 187.348C318.466 187.348 315.801 187.138 312.926 186.719C310.051 186.359 307.206 185.551 304.391 184.293C301.576 183.035 298.85 181.268 296.215 178.992C293.639 176.656 291.333 173.602 289.297 169.828C287.32 166.055 285.733 161.413 284.535 155.902C283.337 150.332 282.738 143.714 282.738 136.047V81.6914C282.738 73.9648 283.337 67.3763 284.535 61.9258C285.793 56.4154 287.44 51.8034 289.477 48.0898C291.513 44.3164 293.819 41.3216 296.395 39.1055C299.03 36.8893 301.755 35.2122 304.57 34.0742C307.445 32.8763 310.29 32.0977 313.105 31.7383C315.921 31.3789 318.526 31.1992 320.922 31.1992C323.198 31.1992 325.714 31.3789 328.469 31.7383C331.284 32.0378 334.069 32.7565 336.824 33.8945C339.639 34.9727 342.365 36.6198 345 38.8359C347.635 40.9922 349.971 43.957 352.008 47.7305C354.044 51.444 355.661 56.0859 356.859 61.6562C358.117 67.1667 358.746 73.8451 358.746 81.6914V136.047C358.746 143.654 358.117 150.212 356.859 155.723C355.602 161.173 353.954 165.815 351.918 169.648C349.882 173.422 347.516 176.477 344.82 178.812C342.185 181.089 339.46 182.885 336.645 184.203C333.889 185.461 331.134 186.299 328.379 186.719C325.624 187.138 323.138 187.348 320.922 187.348ZM320.922 169.828C323.198 169.828 325.174 169.439 326.852 168.66C328.589 167.882 329.996 166.534 331.074 164.617C332.212 162.701 333.051 160.185 333.59 157.07C334.189 153.896 334.488 149.913 334.488 145.121V75.3125C334.488 70.401 334.189 66.2982 333.59 63.0039C333.051 59.7096 332.212 57.0742 331.074 55.0977C329.996 53.0612 328.589 51.6237 326.852 50.7852C325.174 49.9466 323.198 49.5273 320.922 49.5273C318.586 49.5273 316.549 49.9466 314.812 50.7852C313.076 51.6237 311.638 53.0612 310.5 55.0977C309.362 57.0742 308.493 59.7096 307.895 63.0039C307.355 66.2982 307.086 70.401 307.086 75.3125V145.121C307.086 149.913 307.355 153.896 307.895 157.07C308.493 160.185 309.362 162.701 310.5 164.617C311.638 166.534 313.076 167.882 314.812 168.66C316.549 169.439 318.586 169.828 320.922 169.828ZM380.758 32.5469H404.926C408.579 32.5469 412.353 32.6667 416.246 32.9062C420.199 33.0859 424.033 33.7148 427.746 34.793C431.52 35.8711 435.053 37.5482 438.348 39.8242C441.702 42.0404 444.637 45.1849 447.152 49.2578C449.668 53.2708 451.645 58.362 453.082 64.5312C454.579 70.6406 455.328 78.1276 455.328 86.9922V131.555C455.328 140.419 454.579 147.936 453.082 154.105C451.645 160.275 449.668 165.366 447.152 169.379C444.637 173.392 441.702 176.536 438.348 178.812C435.053 181.029 431.52 182.676 427.746 183.754C424.033 184.832 420.199 185.491 416.246 185.73C412.353 185.91 408.579 186 404.926 186H380.758V32.5469ZM409.957 169.738C414.15 169.738 417.594 169.199 420.289 168.121C423.044 167.043 425.201 165.156 426.758 162.461C428.375 159.706 429.483 155.992 430.082 151.32C430.681 146.589 430.98 140.629 430.98 133.441V85.8242C430.98 78.6367 430.681 72.707 430.082 68.0352C429.483 63.3034 428.375 59.5898 426.758 56.8945C425.201 54.1393 423.044 52.2227 420.289 51.1445C417.594 50.0664 414.15 49.5273 409.957 49.5273H404.027V169.738H409.957ZM476.172 32.5469H499.441V186H476.172V32.5469ZM525.766 32.5469H582.637V50.875H549.035V96.7852H575V115.113H549.035V167.672H583.535V186H525.766V32.5469ZM594.406 154.914C594.406 151.62 594.586 148.595 594.945 145.84C595.365 143.025 595.964 140 596.742 136.766H614.801V144.223C614.801 148.355 615.04 152.009 615.52 155.184C616.059 158.358 616.897 161.053 618.035 163.27C619.233 165.426 620.79 167.073 622.707 168.211C624.684 169.289 627.079 169.828 629.895 169.828C634.327 169.828 637.711 168.63 640.047 166.234C642.383 163.779 643.551 160.215 643.551 155.543C643.551 153.147 643.371 150.961 643.012 148.984C642.712 146.948 642.143 144.941 641.305 142.965C640.526 140.988 639.448 138.922 638.07 136.766C636.693 134.549 634.926 132.094 632.77 129.398L608.512 100.559C604.199 95.0482 600.875 89.5078 598.539 83.9375C596.203 78.3073 595.035 72.3177 595.035 65.9688C595.035 60.8776 595.814 56.2057 597.371 51.9531C598.988 47.7005 601.294 44.0469 604.289 40.9922C607.284 37.8776 610.967 35.4818 615.34 33.8047C619.772 32.0677 624.773 31.1992 630.344 31.1992C637.112 31.1992 642.742 32.1576 647.234 34.0742C651.786 35.9909 655.41 38.5065 658.105 41.6211C660.801 44.7357 662.688 48.2396 663.766 52.1328C664.904 55.9661 665.473 59.8294 665.473 63.7227C665.473 67.0169 665.203 70.0716 664.664 72.8867C664.185 75.6419 663.616 78.6966 662.957 82.0508H644.988V74.7734C644.988 66.6276 643.82 60.3984 641.484 56.0859C639.148 51.7135 635.345 49.5273 630.074 49.5273C625.702 49.5273 622.438 50.7552 620.281 53.2109C618.125 55.6068 617.047 58.8411 617.047 62.9141C617.047 65.0703 617.197 67.0169 617.496 68.7539C617.855 70.4909 618.335 72.1081 618.934 73.6055C619.592 75.043 620.371 76.4505 621.27 77.8281C622.168 79.2057 623.186 80.6432 624.324 82.1406L651.367 114.844C656.279 121.253 660.052 127.422 662.688 133.352C665.323 139.221 666.641 145.451 666.641 152.039C666.641 157.49 665.772 162.401 664.035 166.773C662.358 171.146 659.932 174.859 656.758 177.914C653.583 180.969 649.75 183.335 645.258 185.012C640.766 186.629 635.704 187.438 630.074 187.438C623.126 187.438 617.346 186.509 612.734 184.652C608.182 182.796 604.529 180.34 601.773 177.285C599.078 174.23 597.161 170.757 596.023 166.863C594.945 162.97 594.406 158.987 594.406 154.914Z" transform="translate(309 186)" fill="white"/>
<path d="M60.904 237.6C54.0347 237.6 48.1467 235.453 43.24 231.16C38.456 226.989 36.064 220.549 36.064 211.84C36.064 203.131 40.2347 194.973 48.576 187.368C33.7333 185.283 22.816 179.579 15.824 170.256C8.832 160.811 5.336 148.667 5.336 133.824C5.336 118.859 8.03467 104.875 13.432 91.872C18.952 78.7467 27.1093 68.0133 37.904 59.672C48.6987 51.208 60.352 46.976 72.864 46.976C85.4987 46.976 95.3733 50.0427 102.488 56.176C109.725 62.1867 113.344 70.4667 113.344 81.016C113.344 91.5653 110.216 100.091 103.96 106.592C97.704 112.971 90.2827 116.16 81.696 116.16C73.232 116.16 66.6693 114.32 62.008 110.64C57.3467 106.837 55.016 102.851 55.016 98.68C55.016 94.3867 56.672 91.0747 59.984 88.744C63.4187 86.2907 68.3867 85.064 74.888 85.064C73.2933 86.6587 72.496 88.8053 72.496 91.504C72.496 94.08 73.2933 96.3493 74.888 98.312C76.4827 100.275 78.8747 101.256 82.064 101.256C85.376 101.256 88.4427 99.5387 91.264 96.104C94.208 92.6693 95.68 88.008 95.68 82.12C95.68 76.1093 94.1467 71.448 91.08 68.136C88.0133 64.824 83.352 63.168 77.096 63.168C68.7547 63.168 61.1493 66.5413 54.28 73.288C47.5333 80.0347 42.3813 88.6213 38.824 99.048C35.2667 109.475 33.488 120.453 33.488 131.984C33.488 141.92 35.6347 150.691 39.928 158.296C42.136 162.221 45.3867 165.349 49.68 167.68C54.096 170.011 58.3893 171.176 62.56 171.176C66.8533 171.176 70.288 170.992 72.864 170.624L77.464 130.512H103.224L99.176 160.504C112.424 153.512 121.133 145.907 125.304 137.688L132.48 147.808C124.507 160.075 112.731 169.397 97.152 175.776L94.76 195.648C93.7787 204.603 92 212.085 89.424 218.096C86.848 224.107 83.7813 228.4 80.224 230.976C76.7893 233.675 73.6 235.453 70.656 236.312C67.712 237.171 64.4613 237.6 60.904 237.6ZM52.44 211.288C52.44 213.496 53.1147 215.397 54.464 216.992C55.8133 218.587 57.3467 219.384 59.064 219.384C60.904 219.384 62.3147 219.077 63.296 218.464C64.2773 217.851 65.32 216.256 66.424 213.68C67.528 211.104 68.3867 207.485 69 202.824L70.84 187.736C58.5733 195.341 52.44 203.192 52.44 211.288ZM146.626 188.288C139.144 188.288 133.256 186.203 128.962 182.032C124.669 177.739 122.522 171.912 122.522 164.552C122.522 162.589 125.834 133.456 132.458 77.152C134.176 62.6773 138.776 53.5387 146.258 49.736C149.693 47.896 153.802 46.976 158.586 46.976C174.778 46.976 182.874 54.4587 182.874 69.424C182.874 70.6507 182.813 71.9387 182.69 73.288C181.464 89.7253 171.16 106.469 151.778 123.52C151.165 129.531 150.49 135.357 149.754 141C148.282 153.635 147.546 160.627 147.546 161.976C147.546 168.355 150.306 171.544 155.826 171.544C161.837 171.544 167.418 168.109 172.57 161.24C177.845 154.248 181.893 145.355 184.714 134.56C185.818 134.928 187.352 135.971 189.314 137.688C191.277 139.283 192.626 140.693 193.362 141.92C191.4 152.101 186.984 161.853 180.114 171.176C176.68 175.96 172.325 179.885 167.05 182.952C161.04 186.509 154.232 188.288 146.626 188.288ZM153.802 105.12C165.088 92.7307 170.73 81.6293 170.73 71.816C170.73 65.928 168.522 62.984 164.106 62.984C161.285 63.2293 159.384 65.0693 158.402 68.504C157.544 71.9387 156.685 77.52 155.826 85.248C155.09 92.976 154.6 97.76 154.354 99.6L153.802 105.12ZM226.421 98.496C237.706 98.496 247.09 102.115 254.573 109.352C262.178 116.589 265.981 125.421 265.981 135.848C265.981 151.672 261.319 164.368 251.997 173.936C242.797 183.381 231.634 188.104 218.509 188.104C205.383 188.104 194.957 184.363 187.229 176.88C179.623 169.397 175.821 160.136 175.821 149.096C175.821 133.64 180.543 121.373 189.989 112.296C199.557 103.096 211.701 98.496 226.421 98.496ZM222.741 113.4C216.975 113.4 212.13 116.712 208.205 123.336C204.279 129.96 202.133 138.301 201.765 148.36C201.765 155.475 203.175 161.363 205.997 166.024C208.941 170.685 213.357 173.016 219.245 173.016C225.133 173.016 230.039 169.765 233.965 163.264C238.013 156.763 240.037 149.341 240.037 141C240.037 132.659 238.626 126.035 235.805 121.128C232.983 115.976 228.629 113.4 222.741 113.4ZM327.718 98.312C336.55 98.312 344.156 101.931 350.534 109.168C356.913 116.405 360.102 124.869 360.102 134.56C360.102 135.909 360.041 137.32 359.918 138.792C358.569 154.861 353.172 167.128 343.726 175.592C334.281 183.933 321.953 188.104 306.742 188.104C300.609 187.859 295.273 186.755 290.734 184.792C286.196 182.829 282.822 180.376 280.614 177.432C276.444 172.035 274.358 167.251 274.358 163.08C274.358 158.787 274.972 151.917 276.198 142.472C278.774 123.091 282.454 91.7493 287.238 48.448C289.814 47.4667 293.249 46.976 297.542 46.976C307.356 46.976 312.262 49.7973 312.262 55.44L306.006 104.384C311.772 100.336 319.009 98.312 327.718 98.312ZM299.198 161.792C299.198 164.613 300.241 167.005 302.326 168.968C304.534 170.808 307.54 171.728 311.342 171.728C317.598 171.728 322.75 168.845 326.798 163.08C331.705 156.088 334.158 147.011 334.158 135.848C334.158 130.451 332.932 125.667 330.478 121.496C328.025 117.325 324.222 115.24 319.07 115.24C312.078 115.24 306.742 119.411 303.062 127.752L301.59 138.792C299.996 151.181 299.198 158.848 299.198 161.792ZM449.843 187.92C438.557 187.92 431.075 183.995 427.395 176.144C421.016 184.117 412.797 188.104 402.739 188.104C392.803 188.104 384.4 184.731 377.531 177.984C370.784 171.237 367.411 162.344 367.411 151.304C367.411 135.235 372.133 122.416 381.579 112.848C391.024 103.28 402.984 98.496 417.459 98.496C417.827 98.496 418.195 98.496 418.563 98.496C424.696 98.496 430.339 99.5387 435.491 101.624C438.803 99.5387 442.789 98.496 447.451 98.496C452.235 98.496 455.669 99.1093 457.755 100.336C456.651 109.413 455.485 118.368 454.259 127.2C453.032 135.909 452.173 142.104 451.683 145.784C450.579 154.125 450.027 160.136 450.027 163.816C450.027 168.723 451.989 171.176 455.915 171.176C458.981 171.176 462.232 169.152 465.667 165.104C469.101 160.933 472.107 154.432 474.683 145.6C478.24 148.789 480.693 152.347 482.043 156.272C478.485 167.925 473.701 176.144 467.691 180.928C461.68 185.589 455.731 187.92 449.843 187.92ZM420.219 112.848C412.368 112.848 406.112 115.853 401.451 121.864C396.912 127.752 394.213 136.584 393.355 148.36C393.232 149.464 393.171 150.507 393.171 151.488C393.171 157.499 394.581 162.283 397.403 165.84C400.347 169.397 404.088 171.176 408.627 171.176C416.355 171.176 422.181 165.717 426.107 154.8L430.523 115.056C426.965 113.584 423.531 112.848 420.219 112.848ZM493.423 188.288C485.941 188.288 480.053 186.203 475.759 182.032C471.466 177.739 469.319 171.912 469.319 164.552C469.319 162.589 472.631 133.456 479.255 77.152C480.973 62.6773 485.573 53.5387 493.055 49.736C496.49 47.896 500.599 46.976 505.383 46.976C521.575 46.976 529.671 54.4587 529.671 69.424C529.671 70.6507 529.61 71.9387 529.487 73.288C528.261 89.7253 517.957 106.469 498.575 123.52C497.962 129.531 497.287 135.357 496.551 141C495.079 153.635 494.343 160.627 494.343 161.976C494.343 168.355 497.103 171.544 502.623 171.544C508.634 171.544 514.215 168.109 519.367 161.24C524.642 154.248 528.69 145.355 531.511 134.56C532.615 134.928 534.149 135.971 536.111 137.688C538.074 139.283 539.423 140.693 540.159 141.92C538.197 152.101 533.781 161.853 526.911 171.176C523.477 175.96 519.122 179.885 513.847 182.952C507.837 186.509 501.029 188.288 493.423 188.288ZM500.599 105.12C511.885 92.7307 517.527 81.6293 517.527 71.816C517.527 65.928 515.319 62.984 510.903 62.984C508.082 63.2293 506.181 65.0693 505.199 68.504C504.341 71.9387 503.482 77.52 502.623 85.248C501.887 92.976 501.397 97.76 501.151 99.6L500.599 105.12Z" fill="white"/>
</svg>
